<svg xmlns="http://www.w3.org/2000/svg" width="128" height="128" viewBox="0 0 128 128" role="img" aria-label="AI Prompt Reverse Engineer icon">
  <defs>
    <linearGradient id="bg" x1="16" y1="12" x2="112" y2="116" gradientUnits="userSpaceOnUse">
      <stop offset="0" stop-color="#0f1714"/>
      <stop offset="0.45" stop-color="#12352f"/>
      <stop offset="1" stop-color="#d49a41"/>
    </linearGradient>
    <linearGradient id="panel" x1="32" y1="28" x2="96" y2="100" gradientUnits="userSpaceOnUse">
      <stop offset="0" stop-color="#fffdf7" stop-opacity="0.96"/>
      <stop offset="1" stop-color="#dff4ef" stop-opacity="0.92"/>
    </linearGradient>
    <filter id="shadow" x="-20%" y="-20%" width="140%" height="140%">
      <feDropShadow dx="0" dy="8" stdDeviation="9" flood-color="#050807" flood-opacity="0.35"/>
    </filter>
  </defs>
  <rect width="128" height="128" rx="28" fill="url(#bg)"/>
  <path d="M18 98L98 18C109 33 114 49 112 65C110 83 99 99 82 109C63 121 39 118 18 98Z" fill="#0c6f66" opacity="0.76"/>
  <g filter="url(#shadow)">
    <rect x="30" y="31" width="68" height="66" rx="16" fill="url(#panel)"/>
    <path d="M45 55H70" stroke="#0f1714" stroke-width="8" stroke-linecap="round"/>
    <path d="M45 73H83" stroke="#0c6f66" stroke-width="8" stroke-linecap="round"/>
    <path d="M85 30L90 43L103 48L90 53L85 66L80 53L67 48L80 43L85 30Z" fill="#d49a41"/>
    <path d="M34 34L48 20" stroke="#fff4d5" stroke-width="5" stroke-linecap="round" opacity="0.85"/>
  </g>
</svg>
